<svg version="1.1" id="Layer_1" xmlns="http://www.w3.org/2000/svg" xmlns:xlink="http://www.w3.org/1999/xlink" x="0px" y="0px"
	 width="100%" viewBox="0 0 512 512" enable-background="new 0 0 512 512" xml:space="preserve">
<path fill="#012D4E" opacity="1.000000" stroke="none" 
	d="
M238.000000,513.000000 
	C233.974823,513.000000 229.949631,513.000000 225.391998,512.615845 
	C223.689880,511.819824 222.548508,511.276886 221.345963,511.017181 
	C213.172501,509.251892 204.986145,507.546326 196.840790,505.365784 
	C196.900330,487.933594 196.969788,470.956970 196.921631,453.980652 
	C196.903610,447.627289 194.053574,443.162628 188.578705,442.713165 
	C180.826340,442.076813 172.951187,442.097931 165.191422,442.678589 
	C159.840652,443.078979 156.751160,447.597931 156.865417,452.819672 
	C156.976959,457.918182 160.454498,461.889374 165.704391,462.682190 
	C167.499329,462.953278 169.377014,463.013519 171.180222,462.823090 
	C175.031174,462.416412 176.458817,463.799072 176.363983,467.829865 
	C176.113525,478.476227 176.268326,489.132111 175.875275,499.802979 
	C169.270264,497.525085 162.886627,495.593964 156.860641,492.871277 
	C122.679214,477.427155 92.751358,456.216095 68.075661,427.695160 
	C51.771931,408.850800 38.513622,388.238892 28.149420,365.574585 
	C14.639478,336.031250 7.545769,304.931305 6.315434,272.726837 
	C5.673420,255.921890 6.967676,238.828217 9.432605,222.167557 
	C13.557544,194.286713 22.566721,167.809006 36.406441,143.042496 
	C50.439190,117.930542 67.528053,95.407974 89.118462,76.217567 
	C106.616829,60.664322 125.627762,47.543617 146.587555,37.204018 
	C152.954651,34.063087 159.417435,31.116125 166.194305,28.165623 
	C176.846237,34.296421 183.332779,31.617455 188.527618,25.872633 
	C190.057816,24.180437 190.974548,21.933495 192.560760,19.940742 
	C208.568176,17.300833 224.100479,13.364985 239.825821,12.312127 
	C266.167480,10.548470 292.591644,11.996215 318.145538,19.376530 
	C333.020813,23.672714 347.418549,29.622498 361.678040,34.896332 
	C348.921539,41.291035 341.397308,51.362511 340.807861,65.243324 
	C340.116547,81.523445 340.005890,97.894043 340.889008,114.157753 
	C341.885651,132.511963 356.792603,146.468399 375.112396,147.813370 
	C392.813782,149.112946 409.175354,137.007004 413.268921,119.205292 
	C414.224884,115.048027 414.214630,110.627144 414.306000,106.320274 
	C414.577332,93.528999 414.677704,80.734100 415.161377,68.081802 
	C424.934784,77.262993 434.658051,86.043114 443.789062,95.401154 
	C459.220215,111.215965 471.348755,129.545090 480.887848,149.326447 
	C487.564636,163.172195 493.014923,177.716919 497.780701,192.350800 
	C504.486877,212.943024 507.574768,234.387375 507.785828,255.993408 
	C507.926147,270.361603 506.599121,284.815277 504.930328,299.114197 
	C502.041534,323.866608 494.570770,347.416779 483.979736,369.936981 
	C475.754181,387.427368 465.516907,403.730865 453.458099,418.830566 
	C441.189270,434.193359 427.309998,447.935242 411.847351,460.158966 
	C393.576569,474.602539 373.624847,486.175873 352.097687,494.719177 
	C339.209534,499.833984 325.542175,502.985321 312.185669,506.552368 
	C312.126587,496.257233 312.476532,486.408417 311.933960,476.609070 
	C311.655212,471.574738 310.539001,466.292419 308.495270,461.703796 
	C301.541840,446.091797 284.263794,437.707397 267.561005,441.214844 
	C250.839478,444.726227 238.735275,459.320435 238.257736,477.025635 
	C237.934494,489.010681 238.069794,501.008118 238.000000,513.000000 
M191.620300,70.484108 
	C193.233536,58.145721 184.043289,49.503086 172.231537,52.986786 
	C163.980118,56.201992 160.540863,62.327995 162.062103,71.100494 
	C163.135849,77.292404 169.552277,82.559937 176.433075,82.898247 
	C183.097183,83.225899 189.331650,78.261726 191.620300,70.484108 
M391.818054,379.376556 
	C388.639160,371.822052 382.333221,367.978729 374.945129,369.092834 
	C368.592407,370.050812 362.664276,376.585938 362.073425,383.282623 
	C361.459778,390.237061 366.209778,396.484741 374.693390,399.300659 
	C386.186920,401.244537 395.597260,390.714783 391.818054,379.376556 
M374.627502,450.436127 
	C386.026428,452.144379 395.087402,442.542572 392.038269,431.190521 
	C389.417236,423.616821 382.929260,419.181488 375.802551,420.091431 
	C368.604767,421.010406 362.642395,427.229950 362.067474,434.418854 
	C361.485718,441.693390 365.841034,447.394958 374.627502,450.436127 
M195.485321,131.403580 
	C198.674606,123.580757 197.084534,114.776443 191.476273,109.205238 
	C185.425629,103.194565 176.939148,101.602570 168.311142,105.131592 
	C167.020767,105.876526 165.647995,106.509071 164.453659,107.384956 
	C157.662918,112.365105 154.879211,121.137894 157.341324,129.571762 
	C159.645477,137.464630 167.124756,143.496628 175.208038,143.981201 
	C184.325531,144.527786 191.509079,140.172195 195.485321,131.403580 
M369.478424,346.581665 
	C373.928131,349.168335 378.590790,349.142517 383.352692,347.673737 
	C395.672333,343.873901 401.791992,329.582184 395.175385,319.013641 
	C391.905823,310.901642 383.704285,306.751312 373.490662,308.040314 
	C365.331451,309.070099 358.258850,316.730713 357.102142,325.791351 
	C355.997162,334.446808 360.986328,342.996490 369.478424,346.581665 
M89.336792,284.955780 
	C109.018837,280.548920 120.118744,267.142853 120.304085,247.125916 
	C120.439796,232.468628 120.370865,217.805832 120.125877,203.149979 
	C119.987053,194.845184 116.620308,187.631332 111.192406,181.427582 
	C101.147209,169.946564 85.503967,165.878784 71.180275,170.911377 
	C56.282104,176.145798 46.851460,189.336792 46.505764,206.161896 
	C46.228622,219.650513 46.332123,233.150192 46.458549,246.643173 
	C46.688560,271.191406 63.997032,286.930115 89.336792,284.955780 
M301.917572,136.421173 
	C308.888641,128.851578 312.256775,119.961761 312.153229,109.632774 
	C312.018036,96.153152 312.151520,82.671028 312.092285,69.190315 
	C312.080658,66.540581 311.994019,63.836899 311.473724,61.252361 
	C307.716431,42.587532 290.708527,29.562069 272.441345,31.231873 
	C253.135513,32.996616 238.729172,48.172928 238.264969,67.774033 
	C237.937988,81.580223 238.114304,95.400642 238.203873,109.213806 
	C238.309845,125.555710 245.400345,137.959488 260.438538,144.585861 
	C275.495667,151.220566 289.363983,148.072952 301.917572,136.421173 
M210.588013,397.941467 
	C211.664490,392.925537 213.517899,387.932892 213.669235,382.889191 
	C214.093948,368.735687 214.034622,354.556976 213.765137,340.395844 
	C213.365021,319.370667 196.733170,302.992828 176.456940,303.272095 
	C155.880707,303.555511 140.072098,319.829529 139.910751,341.045380 
	C139.806808,354.710907 139.829819,368.378174 139.906342,382.044067 
	C140.008987,400.374634 151.425476,415.154297 168.313217,418.987671 
	C185.650589,422.923096 201.903030,415.018555 210.588013,397.941467 
M255.275955,174.717270 
	C244.127914,182.079391 238.518784,192.609222 238.257217,205.797913 
	C237.976395,219.957565 237.983963,234.130875 238.241013,248.291412 
	C238.624878,269.438080 254.944717,285.516724 275.483887,285.356140 
	C296.111206,285.194916 311.911407,269.047729 312.094604,247.772125 
	C312.212250,234.107849 312.205017,220.441055 312.100037,206.776581 
	C311.868347,176.624344 282.256134,159.544617 255.275955,174.717270 
M103.701881,383.500000 
	C103.702019,371.511810 103.703537,359.523651 103.701859,347.535461 
	C103.700531,338.044830 103.822464,328.551971 103.652977,319.064301 
	C103.508034,310.950348 99.560280,307.150665 91.567139,307.071014 
	C85.573799,307.011261 79.574516,306.925995 73.586624,307.120789 
	C67.898483,307.305847 63.655701,311.452148 63.295128,316.751312 
	C62.941570,321.947418 66.785316,326.463989 72.481056,327.417542 
	C73.947495,327.662994 75.496239,327.856323 76.950043,327.656952 
	C81.683983,327.007721 83.201706,328.727936 83.151390,333.650909 
	C82.901245,358.124207 82.983421,382.601715 83.113899,407.076904 
	C83.128410,409.798157 83.607956,412.840088 84.901031,415.159485 
	C87.118919,419.137726 91.020744,420.691772 95.596138,419.713379 
	C100.179840,418.733093 103.350952,414.966248 103.547607,409.470428 
	C103.845123,401.155792 103.673470,392.824310 103.701881,383.500000 
M389.680267,190.543228 
	C389.643738,187.378189 389.810822,184.194885 389.528717,181.051880 
	C388.920990,174.281525 385.231842,170.921753 378.408386,170.820053 
	C372.244171,170.728165 366.075287,170.702728 359.912476,170.835114 
	C353.597717,170.970764 349.111603,175.373413 349.265930,181.013901 
	C349.421021,186.682236 353.945679,190.854828 360.201141,191.019485 
	C362.967865,191.092331 365.738098,191.031784 369.024231,191.031784 
	C369.024231,193.728302 369.024170,195.689774 369.024231,197.651260 
	C369.024994,222.147202 369.005585,246.643158 369.038391,271.139038 
	C369.048553,278.718475 372.914215,283.387177 379.121338,283.539825 
	C385.297607,283.691772 389.410095,279.012268 389.664368,271.517151 
	C389.709564,270.185486 389.680237,268.851166 389.680237,267.518066 
	C389.680450,242.188934 389.679871,216.859802 389.680267,190.543228 
M467.157837,282.804810 
	C472.372192,280.572296 473.801636,276.209961 473.800262,271.030121 
	C473.796631,257.551483 473.801758,244.072876 473.802368,230.594254 
	C473.803009,215.784409 473.805359,200.974579 473.801544,186.164734 
	C473.798309,173.531357 471.111176,170.793976 458.713989,170.792191 
	C453.721985,170.791458 448.726593,170.694748 443.738800,170.843704 
	C437.819214,171.020493 433.417572,175.406876 433.455902,180.834320 
	C433.495178,186.397995 437.789703,190.743774 443.651794,190.998169 
	C446.587585,191.125580 449.533508,191.020355 453.098938,191.020355 
	C453.098938,193.631195 453.098846,195.582657 453.098938,197.534119 
	C453.100403,222.161713 453.060364,246.789413 453.125610,271.416840 
	C453.148804,280.167938 458.133362,284.399811 467.157837,282.804810 
M196.949509,257.498932 
	C196.949524,248.842255 196.950287,240.185562 196.949387,231.528885 
	C196.947662,215.047913 196.999329,198.566650 196.915787,182.086090 
	C196.882782,175.574509 193.484818,171.222824 187.853928,170.969650 
	C180.545074,170.641006 173.201721,170.655807 165.890244,170.948334 
	C160.421249,171.167175 156.840897,175.485321 156.867203,180.964661 
	C156.893112,186.361359 160.605804,190.478333 166.014847,190.968491 
	C167.832413,191.133194 169.695740,191.207306 171.501511,191.001434 
	C175.230026,190.576385 176.418365,192.059708 176.355835,195.788589 
	C176.157715,207.604950 176.281494,219.426743 176.285248,231.246445 
	C176.289581,244.897293 176.168823,258.549957 176.359116,272.198273 
	C176.457733,279.272186 180.975266,283.787598 187.008408,283.533447 
	C192.885452,283.285889 196.797897,278.790161 196.927765,271.982178 
	C197.013474,267.488953 196.947495,262.992859 196.949509,257.498932 
M295.199036,394.499390 
	C295.196899,369.205719 295.225525,343.911957 295.172089,318.618378 
	C295.157776,311.841949 291.840515,307.526947 285.864502,307.218018 
	C278.730072,306.849182 271.527557,306.721985 264.415863,307.276703 
	C256.539856,307.891052 252.703705,316.444977 256.918182,322.917358 
	C259.527740,326.924957 263.572266,327.623047 267.841766,327.656738 
	C275.518097,327.717346 274.934204,326.996094 274.939697,335.111084 
	C274.956268,359.572723 274.918365,384.034424 274.970337,408.495972 
	C274.984619,415.233215 279.079865,419.841034 284.869965,419.965912 
	C290.994843,420.098022 295.065735,415.604614 295.179565,408.478333 
	C295.248688,404.152832 295.196930,399.825439 295.199036,394.499390 
z"/>
<path fill="#000000" opacity="0.000000" stroke="none"
	d="
M362.031128,34.828243 
	C347.418549,29.622498 333.020813,23.672714 318.145538,19.376530 
	C292.591644,11.996215 266.167480,10.548470 239.825821,12.312127 
	C224.100479,13.364985 208.568176,17.300833 192.494965,19.905128 
	C192.040848,19.869549 191.925552,19.963345 191.974304,19.579731 
	C193.626602,14.387253 192.204361,10.321119 189.075851,6.585479 
	C187.599335,4.822387 186.351471,2.867809 185.000000,0.999997 
	C294.288422,1.000000 403.576813,1.000000 512.932617,1.000000 
	C512.932617,171.551590 512.932617,342.103210 512.932617,513.000000 
	C438.646118,513.000000 364.291718,513.000000 289.496216,512.653442 
	C290.035522,511.845398 291.015930,511.383850 292.420898,510.958557 
	C299.305298,509.669586 305.765167,508.344391 312.225067,507.019196 
	C325.542175,502.985321 339.209534,499.833984 352.097687,494.719177 
	C373.624847,486.175873 393.576569,474.602539 411.847351,460.158966 
	C427.309998,447.935242 441.189270,434.193359 453.458099,418.830566 
	C465.516907,403.730865 475.754181,387.427368 483.979736,369.936981 
	C494.570770,347.416779 502.041534,323.866608 504.930328,299.114197 
	C506.599121,284.815277 507.926147,270.361603 507.785828,255.993408 
	C507.574768,234.387375 504.486877,212.943024 497.780701,192.350800 
	C493.014923,177.716919 487.564636,163.172195 480.887848,149.326447 
	C471.348755,129.545090 459.220215,111.215965 443.789062,95.401154 
	C434.658051,86.043114 424.934784,77.262993 414.996826,67.802055 
	C412.679840,65.770844 410.972137,63.978687 408.987488,62.579311 
	C394.083130,52.070271 378.899445,42.019566 362.031128,34.828243 
z"/>
<path fill="#000000" opacity="0.000000" stroke="none"
	d="
M196.803955,505.821472 
	C204.986145,507.546326 213.172501,509.251892 221.345963,511.017181 
	C222.548508,511.276886 223.689880,511.819824 224.929779,512.615845 
	C150.369476,513.000000 75.738960,513.000000 1.054220,513.000000 
	C1.054220,342.452118 1.054220,171.904205 1.054220,1.000000 
	C56.687054,1.000000 112.374870,1.000000 168.617371,1.349502 
	C159.896362,8.917157 157.737366,18.860149 165.836380,28.080322 
	C159.417435,31.116125 152.954651,34.063087 146.587555,37.204018 
	C125.627762,47.543617 106.616829,60.664322 89.118462,76.217567 
	C67.528053,95.407974 50.439190,117.930542 36.406441,143.042496 
	C22.566721,167.809006 13.557544,194.286713 9.432605,222.167557 
	C6.967676,238.828217 5.673420,255.921890 6.315434,272.726837 
	C7.545769,304.931305 14.639478,336.031250 28.149420,365.574585 
	C38.513622,388.238892 51.771931,408.850800 68.075661,427.695160 
	C92.751358,456.216095 122.679214,477.427155 156.860641,492.871277 
	C162.886627,495.593964 169.270264,497.525085 176.164490,500.030334 
	C183.494812,502.099731 190.149384,503.960602 196.803955,505.821472 
z"/>
<path fill="#59FCB6" opacity="1.000000" stroke="none" 
	d="
M312.185669,506.552368 
	C305.765167,508.344391 299.305298,509.669586 292.355591,510.500732 
	C291.852631,501.206451 291.915710,492.405090 291.789764,483.606445 
	C291.737823,479.977325 291.763702,476.235168 290.907715,472.752441 
	C289.019714,465.070984 281.560425,460.285645 273.481476,461.014099 
	C265.699402,461.715790 259.101593,468.205750 258.944000,476.154114 
	C258.700623,488.430908 258.956116,500.717529 259.000000,513.000000 
	C252.312363,513.000000 245.624710,513.000000 238.468536,513.000000 
	C238.069794,501.008118 237.934494,489.010681 238.257736,477.025635 
	C238.735275,459.320435 250.839478,444.726227 267.561005,441.214844 
	C284.263794,437.707397 301.541840,446.091797 308.495270,461.703796 
	C310.539001,466.292419 311.655212,471.574738 311.933960,476.609070 
	C312.476532,486.408417 312.126587,496.257233 312.185669,506.552368 
z"/>
<path fill="#022F4F" opacity="1.000000" stroke="none" 
	d="
M259.468658,513.000000 
	C258.956116,500.717529 258.700623,488.430908 258.944000,476.154114 
	C259.101593,468.205750 265.699402,461.715790 273.481476,461.014099 
	C281.560425,460.285645 289.019714,465.070984 290.907715,472.752441 
	C291.763702,476.235168 291.737823,479.977325 291.789764,483.606445 
	C291.915710,492.405090 291.852631,501.206451 291.931030,510.464508 
	C291.015930,511.383850 290.035522,511.845398 289.027527,512.653442 
	C279.312439,513.000000 269.624878,513.000000 259.468658,513.000000 
z"/>
<path fill="#006E66" opacity="1.000000" stroke="none" 
	d="
M166.194305,28.165625 
	C157.737366,18.860149 159.896362,8.917157 169.086029,1.349502 
	C170.066666,1.000000 171.133347,1.000000 172.602676,1.439586 
	C173.001877,14.831061 178.548584,20.132687 191.925552,19.963345 
	C191.925552,19.963345 192.040848,19.869549 192.106628,19.905163 
	C190.974548,21.933495 190.057816,24.180437 188.527618,25.872633 
	C183.332779,31.617455 176.846237,34.296421 166.194305,28.165625 
z"/>
<path fill="#06975F" opacity="1.000000" stroke="none" 
	d="
M191.974304,19.579731 
	C178.548584,20.132687 173.001877,14.831061 173.002670,1.439586 
	C176.692902,1.000000 180.385818,1.000000 184.539368,0.999997 
	C186.351471,2.867809 187.599335,4.822387 189.075851,6.585479 
	C192.204361,10.321119 193.626602,14.387253 191.974304,19.579731 
z"/>
<path fill="#59FDB6" opacity="1.000000" stroke="none" 
	d="
M88.920494,284.993073 
	C63.997032,286.930115 46.688560,271.191406 46.458549,246.643173 
	C46.332123,233.150192 46.228622,219.650513 46.505764,206.161896 
	C46.851460,189.336792 56.282104,176.145798 71.180275,170.911377 
	C85.503967,165.878784 101.147209,169.946564 111.192406,181.427582 
	C116.620308,187.631332 119.987053,194.845184 120.125877,203.149979 
	C120.370865,217.805832 120.439796,232.468628 120.304085,247.125916 
	C120.118744,267.142853 109.018837,280.548920 88.920494,284.993073 
M86.762733,264.671967 
	C96.105202,261.598541 99.942085,256.382385 99.965271,246.563370 
	C99.996338,233.405090 100.016846,220.246475 99.958008,207.088379 
	C99.911186,196.619492 92.763062,189.019547 83.239792,189.157761 
	C73.840553,189.294189 67.014687,196.706741 66.973335,206.973801 
	C66.919655,220.298508 66.921455,233.623718 66.971008,246.948456 
	C67.014915,258.757446 74.058800,265.348602 86.762733,264.671967 
z"/>
<path fill="#59FCB6" opacity="1.000000" stroke="none" 
	d="
M301.669250,136.673615 
	C289.363983,148.072952 275.495667,151.220566 260.438538,144.585861 
	C245.400345,137.959488 238.309845,125.555710 238.203873,109.213806 
	C238.114304,95.400642 237.937988,81.580223 238.264969,67.774033 
	C238.729172,48.172928 253.135513,32.996616 272.441345,31.231873 
	C290.708527,29.562069 307.716431,42.587532 311.473724,61.252361 
	C311.994019,63.836899 312.080658,66.540581 312.092285,69.190315 
	C312.151520,82.671028 312.018036,96.153152 312.153229,109.632774 
	C312.256775,119.961761 308.888641,128.851578 301.669250,136.673615 
M258.800934,91.499924 
	C258.803986,97.819504 258.722626,104.140503 258.829681,110.458321 
	C258.994141,120.162056 265.687805,127.121330 274.858154,127.283859 
	C284.267426,127.450623 291.571594,120.573418 291.745605,110.709297 
	C291.994873,96.577873 291.992767,82.435616 291.748108,68.304047 
	C291.577271,58.436924 284.297668,51.584942 274.862732,51.744949 
	C265.672394,51.900806 258.988281,58.824825 258.833160,68.548141 
	C258.716461,75.863716 258.804169,83.182549 258.800934,91.499924 
z"/>
<path fill="#59FCB6" opacity="1.000000" stroke="none" 
	d="
M210.402832,398.274231 
	C201.903030,415.018555 185.650589,422.923096 168.313217,418.987671 
	C151.425476,415.154297 140.008987,400.374634 139.906342,382.044067 
	C139.829819,368.378174 139.806808,354.710907 139.910751,341.045380 
	C140.072098,319.829529 155.880707,303.555511 176.456940,303.272095 
	C196.733170,302.992828 213.365021,319.370667 213.765137,340.395844 
	C214.034622,354.556976 214.093948,368.735687 213.669235,382.889191 
	C213.517899,387.932892 211.664490,392.925537 210.402832,398.274231 
M180.454803,399.068817 
	C189.171616,396.215210 193.125092,391.122406 193.180679,382.237091 
	C193.266083,368.581909 193.273087,354.925354 193.182922,341.270233 
	C193.115875,331.117523 186.511429,324.052246 177.184799,323.887665 
	C167.528122,323.717255 160.356796,330.733490 160.230804,340.936737 
	C160.060150,354.756866 160.044769,368.582733 160.235733,382.402313 
	C160.390350,393.590302 168.425766,400.354858 180.454803,399.068817 
z"/>
<path fill="#59FDB6" opacity="1.000000" stroke="none" 
	d="
M255.575592,174.505005 
	C282.256134,159.544617 311.868347,176.624344 312.100037,206.776581 
	C312.205017,220.441055 312.212250,234.107849 312.094604,247.772125 
	C311.911407,269.047729 296.111206,285.194916 275.483887,285.356140 
	C254.944717,285.516724 238.624878,269.438080 238.241013,248.291412 
	C237.983963,234.130875 237.976395,219.957565 238.257217,205.797913 
	C238.518784,192.609222 244.127914,182.079391 255.575592,174.505005 
M259.863159,199.827713 
	C259.509491,202.278870 258.868530,204.727844 258.850006,207.181534 
	C258.749298,220.506027 258.753479,233.831909 258.817780,247.156860 
	C258.868073,257.576813 265.540436,264.864777 274.975525,264.989716 
	C284.582703,265.116882 291.718842,257.674194 291.800262,247.166595 
	C291.903503,233.842148 291.880676,220.515961 291.806152,207.191116 
	C291.755066,198.053787 287.083435,191.774414 279.073120,189.747482 
	C271.340363,187.790787 264.733765,191.037811 259.863159,199.827713 
z"/>
<path fill="#59FCB6" opacity="1.000000" stroke="none" 
	d="
M361.678040,34.896332 
	C378.899445,42.019566 394.083130,52.070271 408.987488,62.579311 
	C410.972137,63.978687 412.679840,65.770844 414.680359,67.660858 
	C414.677704,80.734100 414.577332,93.528999 414.306000,106.320274 
	C414.214630,110.627144 414.224884,115.048027 413.268921,119.205292 
	C409.175354,137.007004 392.813782,149.112946 375.112396,147.813370 
	C356.792603,146.468399 341.885651,132.511963 340.889008,114.157753 
	C340.005890,97.894043 340.116547,81.523445 340.807861,65.243324 
	C341.397308,51.362511 348.921539,41.291035 361.678040,34.896332 
M361.043671,112.920624 
	C363.442383,123.001122 370.139832,128.160690 379.517273,127.152290 
	C388.170990,126.221718 393.921875,119.138580 393.954376,109.218033 
	C393.997986,95.905907 394.020660,82.593208 393.945862,69.281349 
	C393.888062,58.994308 387.047028,51.771816 377.514252,51.726509 
	C367.914001,51.680882 361.016235,58.836163 360.973145,69.094170 
	C360.913086,83.404411 360.978943,97.715179 361.043671,112.920624 
z"/>
<path fill="#0AB19C" opacity="1.000000" stroke="none" 
	d="
M103.701530,384.000000 
	C103.673470,392.824310 103.845123,401.155792 103.547607,409.470428 
	C103.350952,414.966248 100.179840,418.733093 95.596138,419.713379 
	C91.020744,420.691772 87.118919,419.137726 84.901031,415.159485 
	C83.607956,412.840088 83.128410,409.798157 83.113899,407.076904 
	C82.983421,382.601715 82.901245,358.124207 83.151390,333.650909 
	C83.201706,328.727936 81.683983,327.007721 76.950043,327.656952 
	C75.496239,327.856323 73.947495,327.662994 72.481056,327.417542 
	C66.785316,326.463989 62.941570,321.947418 63.295128,316.751312 
	C63.655701,311.452148 67.898483,307.305847 73.586624,307.120789 
	C79.574516,306.925995 85.573799,307.011261 91.567139,307.071014 
	C99.560280,307.150665 103.508034,310.950348 103.652977,319.064301 
	C103.822464,328.551971 103.700531,338.044830 103.701859,347.535461 
	C103.703537,359.523651 103.702019,371.511810 103.701530,384.000000 
z"/>
<path fill="#0AB29C" opacity="1.000000" stroke="none" 
	d="
M389.679871,191.036957 
	C389.679871,216.859802 389.680450,242.188934 389.680237,267.518066 
	C389.680237,268.851166 389.709564,270.185486 389.664368,271.517151 
	C389.410095,279.012268 385.297607,283.691772 379.121338,283.539825 
	C372.914215,283.387177 369.048553,278.718475 369.038391,271.139038 
	C369.005585,246.643158 369.024994,222.147202 369.024231,197.651260 
	C369.024170,195.689774 369.024231,193.728302 369.024231,191.031784 
	C365.738098,191.031784 362.967865,191.092331 360.201141,191.019485 
	C353.945679,190.854828 349.421021,186.682236 349.265930,181.013901 
	C349.111603,175.373413 353.597717,170.970764 359.912476,170.835114 
	C366.075287,170.702728 372.244171,170.728165 378.408386,170.820053 
	C385.231842,170.921753 388.920990,174.281525 389.528717,181.051880 
	C389.810822,184.194885 389.643738,187.378189 389.679871,191.036957 
z"/>
<path fill="#0AB29C" opacity="1.000000" stroke="none" 
	d="
M466.798737,282.908417 
	C458.133362,284.399811 453.148804,280.167938 453.125610,271.416840 
	C453.060364,246.789413 453.100403,222.161713 453.098938,197.534119 
	C453.098846,195.582657 453.098938,193.631195 453.098938,191.020355 
	C449.533508,191.020355 446.587585,191.125580 443.651794,190.998169 
	C437.789703,190.743774 433.495178,186.397995 433.455902,180.834320 
	C433.417572,175.406876 437.819214,171.020493 443.738800,170.843704 
	C448.726593,170.694748 453.721985,170.791458 458.713989,170.792191 
	C471.111176,170.793976 473.798309,173.531357 473.801544,186.164734 
	C473.805359,200.974579 473.803009,215.784409 473.802368,230.594254 
	C473.801758,244.072876 473.796631,257.551483 473.800262,271.030121 
	C473.801636,276.209961 472.372192,280.572296 466.798737,282.908417 
z"/>
<path fill="#0AB29C" opacity="1.000000" stroke="none" 
	d="
M196.949463,257.998474 
	C196.947495,262.992859 197.013474,267.488953 196.927765,271.982178 
	C196.797897,278.790161 192.885452,283.285889 187.008408,283.533447 
	C180.975266,283.787598 176.457733,279.272186 176.359116,272.198273 
	C176.168823,258.549957 176.289581,244.897293 176.285248,231.246445 
	C176.281494,219.426743 176.157715,207.604950 176.355835,195.788589 
	C176.418365,192.059708 175.230026,190.576385 171.501511,191.001434 
	C169.695740,191.207306 167.832413,191.133194 166.014847,190.968491 
	C160.605804,190.478333 156.893112,186.361359 156.867203,180.964661 
	C156.840897,175.485321 160.421249,171.167175 165.890244,170.948334 
	C173.201721,170.655807 180.545074,170.641006 187.853928,170.969650 
	C193.484818,171.222824 196.882782,175.574509 196.915787,182.086090 
	C196.999329,198.566650 196.947662,215.047913 196.949387,231.528885 
	C196.950287,240.185562 196.949524,248.842255 196.949463,257.998474 
z"/>
<path fill="#0AB49D" opacity="1.000000" stroke="none" 
	d="
M295.199219,394.999146 
	C295.196930,399.825439 295.248688,404.152832 295.179565,408.478333 
	C295.065735,415.604614 290.994843,420.098022 284.869965,419.965912 
	C279.079865,419.841034 274.984619,415.233215 274.970337,408.495972 
	C274.918365,384.034424 274.956268,359.572723 274.939697,335.111084 
	C274.934204,326.996094 275.518097,327.717346 267.841766,327.656738 
	C263.572266,327.623047 259.527740,326.924957 256.918182,322.917358 
	C252.703705,316.444977 256.539856,307.891052 264.415863,307.276703 
	C271.527557,306.721985 278.730072,306.849182 285.864502,307.218018 
	C291.840515,307.526947 295.157776,311.841949 295.172089,318.618378 
	C295.225525,343.911957 295.196899,369.205719 295.199219,394.999146 
z"/>
<path fill="#0AB29C" opacity="1.000000" stroke="none" 
	d="
M196.840790,505.365784 
	C190.149384,503.960602 183.494812,502.099731 176.551025,500.011536 
	C176.268326,489.132111 176.113525,478.476227 176.363983,467.829865 
	C176.458817,463.799072 175.031174,462.416412 171.180222,462.823090 
	C169.377014,463.013519 167.499329,462.953278 165.704391,462.682190 
	C160.454498,461.889374 156.976959,457.918182 156.865417,452.819672 
	C156.751160,447.597931 159.840652,443.078979 165.191422,442.678589 
	C172.951187,442.097931 180.826340,442.076813 188.578705,442.713165 
	C194.053574,443.162628 196.903610,447.627289 196.921631,453.980652 
	C196.969788,470.956970 196.900330,487.933594 196.840790,505.365784 
z"/>
<path fill="#06985F" opacity="1.000000" stroke="none" 
	d="
M395.347260,319.690002 
	C401.791992,329.582184 395.672333,343.873901 383.352692,347.673737 
	C378.590790,349.142517 373.928131,349.168335 369.229370,345.863007 
	C369.336273,340.727844 368.766205,335.973755 370.229279,331.960907 
	C373.968567,321.704834 382.072266,318.102295 395.347260,319.690002 
z"/>
<path fill="#06985F" opacity="1.000000" stroke="none" 
	d="
M168.990891,104.987152 
	C176.939148,101.602570 185.425629,103.194565 191.476273,109.205238 
	C197.084534,114.776443 198.674606,123.580757 194.821548,131.697479 
	C191.376678,132.138901 188.496323,132.829681 185.831177,132.342682 
	C172.085175,129.830948 165.579071,119.079865 168.990891,104.987152 
z"/>
<path fill="#006D66" opacity="1.000000" stroke="none" 
	d="
M168.651016,105.059372 
	C165.579071,119.079865 172.085175,129.830948 185.831177,132.342682 
	C188.496323,132.829681 191.376678,132.138901 194.575348,131.988235 
	C191.509079,140.172195 184.325531,144.527786 175.208038,143.981201 
	C167.124756,143.496628 159.645477,137.464630 157.341324,129.571762 
	C154.879211,121.137894 157.662918,112.365105 164.453659,107.384956 
	C165.647995,106.509071 167.020767,105.876526 168.651016,105.059372 
z"/>
<path fill="#006E66" opacity="1.000000" stroke="none" 
	d="
M395.261322,319.351807 
	C382.072266,318.102295 373.968567,321.704834 370.229279,331.960907 
	C368.766205,335.973755 369.336273,340.727844 368.962830,345.615356 
	C360.986328,342.996490 355.997162,334.446808 357.102142,325.791351 
	C358.258850,316.730713 365.331451,309.070099 373.490662,308.040314 
	C383.704285,306.751312 391.905823,310.901642 395.261322,319.351807 
z"/>
<path fill="#006E66" opacity="1.000000" stroke="none" 
	d="
M373.982971,450.017609 
	C365.841034,447.394958 361.485718,441.693390 362.067474,434.418854 
	C362.642395,427.229950 368.604767,421.010406 375.802551,420.091431 
	C382.929260,419.181488 389.417236,423.616821 391.701752,431.513855 
	C380.174255,430.616180 373.921753,437.155792 373.982971,450.017609 
z"/>
<path fill="#006E66" opacity="1.000000" stroke="none" 
	d="
M374.007263,398.979218 
	C366.209778,396.484741 361.459778,390.237061 362.073425,383.282623 
	C362.664276,376.585938 368.592407,370.050812 374.945129,369.092834 
	C382.333221,367.978729 388.639160,371.822052 391.433289,379.718536 
	C379.079315,380.349579 373.852356,386.152374 374.007263,398.979218 
z"/>
<path fill="#006D66" opacity="1.000000" stroke="none" 
	d="
M191.175842,71.159386 
	C189.331650,78.261726 183.097183,83.225899 176.433075,82.898247 
	C169.552277,82.559937 163.135849,77.292404 162.062103,71.100494 
	C160.540863,62.327995 163.980118,56.201992 172.604492,53.396324 
	C173.151779,65.994049 177.937042,70.557152 191.175842,71.159386 
z"/>
<path fill="#06975F" opacity="1.000000" stroke="none" 
	d="
M374.350342,399.139954 
	C373.852356,386.152374 379.079315,380.349579 391.456848,380.073364 
	C395.597260,390.714783 386.186920,401.244537 374.350342,399.139954 
z"/>
<path fill="#06975F" opacity="1.000000" stroke="none" 
	d="
M191.398071,70.821747 
	C177.937042,70.557152 173.151779,65.994049 172.965363,53.367619 
	C184.043289,49.503086 193.233536,58.145721 191.398071,70.821747 
z"/>
<path fill="#06975F" opacity="1.000000" stroke="none" 
	d="
M374.305237,450.226868 
	C373.921753,437.155792 380.174255,430.616180 391.734924,431.876526 
	C395.087402,442.542572 386.026428,452.144379 374.305237,450.226868 
z"/>
<path fill="#022F4F" opacity="1.000000" stroke="none" 
	d="
M86.359406,264.753113 
	C74.058800,265.348602 67.014915,258.757446 66.971008,246.948456 
	C66.921455,233.623718 66.919655,220.298508 66.973335,206.973801 
	C67.014687,196.706741 73.840553,189.294189 83.239792,189.157761 
	C92.763062,189.019547 99.911186,196.619492 99.958008,207.088379 
	C100.016846,220.246475 99.996338,233.405090 99.965271,246.563370 
	C99.942085,256.382385 96.105202,261.598541 86.359406,264.753113 
z"/>
<path fill="#022F4F" opacity="1.000000" stroke="none" 
	d="
M258.800903,90.999924 
	C258.804169,83.182549 258.716461,75.863716 258.833160,68.548141 
	C258.988281,58.824825 265.672394,51.900806 274.862732,51.744949 
	C284.297668,51.584942 291.577271,58.436924 291.748108,68.304047 
	C291.992767,82.435616 291.994873,96.577873 291.745605,110.709297 
	C291.571594,120.573418 284.267426,127.450623 274.858154,127.283859 
	C265.687805,127.121330 258.994141,120.162056 258.829681,110.458321 
	C258.722626,104.140503 258.803986,97.819504 258.800903,90.999924 
z"/>
<path fill="#022F4F" opacity="1.000000" stroke="none" 
	d="
M180.069702,399.131287 
	C168.425766,400.354858 160.390350,393.590302 160.235733,382.402313 
	C160.044769,368.582733 160.060150,354.756866 160.230804,340.936737 
	C160.356796,330.733490 167.528122,323.717255 177.184799,323.887665 
	C186.511429,324.052246 193.115875,331.117523 193.182922,341.270233 
	C193.273087,354.925354 193.266083,368.581909 193.180679,382.237091 
	C193.125092,391.122406 189.171616,396.215210 180.069702,399.131287 
z"/>
<path fill="#022F4F" opacity="1.000000" stroke="none" 
	d="
M259.988861,199.446503 
	C264.733765,191.037811 271.340363,187.790787 279.073120,189.747482 
	C287.083435,191.774414 291.755066,198.053787 291.806152,207.191116 
	C291.880676,220.515961 291.903503,233.842148 291.800262,247.166595 
	C291.718842,257.674194 284.582703,265.116882 274.975525,264.989716 
	C265.540436,264.864777 258.868073,257.576813 258.817780,247.156860 
	C258.753479,233.831909 258.749298,220.506027 258.850006,207.181534 
	C258.868530,204.727844 259.509491,202.278870 259.988861,199.446503 
z"/>
<path fill="#022E4F" opacity="1.000000" stroke="none" 
	d="
M361.017303,112.473175 
	C360.978943,97.715179 360.913086,83.404411 360.973145,69.094170 
	C361.016235,58.836163 367.914001,51.680882 377.514252,51.726509 
	C387.047028,51.771816 393.888062,58.994308 393.945862,69.281349 
	C394.020660,82.593208 393.997986,95.905907 393.954376,109.218033 
	C393.921875,119.138580 388.170990,126.221718 379.517273,127.152290 
	C370.139832,128.160690 363.442383,123.001122 361.017303,112.473175 
z"/>
</svg>
